<svg xmlns="http://www.w3.org/2000/svg" viewBox="0 0 64 64">
<defs><linearGradient id="g" x1="0" y1="0" x2="1" y2="1"><stop stop-color="#E88BA8"/><stop offset="1" stop-color="#8E3D59"/></linearGradient></defs>
<circle cx="32" cy="32" r="29" fill="#FFF7FA" stroke="#E88BA8" stroke-width="2"/>
<path d="M32 13c3.8 0 7.2 3.2 7.2 7.2 0 2.5-1.3 4.8-3.2 6.1 4.7.4 8.4-3.3 8.4-7.8 0-4.9-4.1-8.9-9.1-8.9-1.4 0-2.7.3-3.9.9-1.2-.6-2.5-.9-3.9-.9-5 0-9.1 4-9.1 8.9 0 4.5 3.7 8.2 8.4 7.8-1.9-1.3-3.2-3.6-3.2-6.1C24.8 16.2 28.2 13 32 13Z" fill="url(#g)" opacity=".95"/>
<path d="M28.5 25.5h7v7h7v7h-7v7h-7v-7h-7v-7h7z" fill="#8E3D59"/>
</svg>